# xmcd
#
# Track frame offsets: 
#        150
#        23021
#        33905
#        47629
#        65351
#        77870
#        86559
#        97477
#        108536
#        120018
#        135655
#        150444
#
# Disc length: 2184 seconds
#
# Revision: 5
# Processed by: cddbd v1.5.2PL0 Copyright (c) Steve Scherf et al.
# Submitted via: ExactAudioCopy v0.99pb4
#
DISCID=8f08860c
DTITLE=Various Artist - Best of Blues (2 of 3)
DYEAR=2000
DGENRE=Blues
TTITLE0=B.B. King - The Thrill is Gone (Live)
TTITLE1=Billie Holiday - I Got it Bad and That Ain't Good
TTITLE2=Leadbelly - The Bourgeois Blues
TTITLE3=John Mayall - Mama Talk to Your Daughter
TTITLE4=Big Maybelle - I Cried for You
TTITLE5=Big Joe Williams - Goin' Away, Won't Be Back Till Fall
TTITLE6=Roy Milton - Information Blues
TTITLE7=Amos Milbourne - Bad Bad Whiskey
TTITLE8=Ike and Tina Turner - So Blue Over You
TTITLE9=B.B. King - The Letter (Live)
TTITLE10=Billie Holiday - Lover Man
TTITLE11=Lightnin' Hopkins - Mojo Hand
EXTD=YEAR: 2000 ID3G:   0
EXTT0=
EXTT1=
EXTT2=
EXTT3=
EXTT4=
EXTT5=
EXTT6=
EXTT7=
EXTT8=
EXTT9=
EXTT10=
EXTT11=
PLAYORDER=
